<svg width="16" height="18" viewBox="0 0 16 18" fill="none" xmlns="http://www.w3.org/2000/svg">
<path d="M5.77648 8.99957C5.77648 10.2269 4.78155 11.2218 3.55425 11.2218C2.32696 11.2218 1.33203 10.2269 1.33203 8.99957C1.33203 7.77228 2.32696 6.77734 3.55425 6.77734C4.78155 6.77734 5.77648 7.77228 5.77648 8.99957Z" stroke="#767676" stroke-width="2"/>
<path d="M10.2218 4.11133L5.77734 7.22244" stroke="#767676" stroke-width="2" stroke-linecap="round"/>
<path d="M10.2218 13.8885L5.77734 10.7773" stroke="#767676" stroke-width="2" stroke-linecap="round"/>
<path d="M14.6671 14.7769C14.6671 16.0042 13.6722 16.9991 12.4449 16.9991C11.2176 16.9991 10.2227 16.0042 10.2227 14.7769C10.2227 13.5496 11.2176 12.5547 12.4449 12.5547C13.6722 12.5547 14.6671 13.5496 14.6671 14.7769Z" stroke="#767676" stroke-width="2"/>
<path d="M14.6671 3.22222C14.6671 4.44952 13.6722 5.44444 12.4449 5.44444C11.2176 5.44444 10.2227 4.44952 10.2227 3.22222C10.2227 1.99492 11.2176 1 12.4449 1C13.6722 1 14.6671 1.99492 14.6671 3.22222Z" stroke="#767676" stroke-width="2"/>
</svg>
