<?xml version="1.0" encoding="utf-8"?><svg viewBox="0 0 24 24" xmlns="http://www.w3.org/2000/svg" xmlns:xlink="http://www.w3.org/1999/xlink"><style>:root>svg{display:none}:root>svg:target{display:block}</style><svg fill="none" viewBox="0 0 24 24" id="Arrowdwn" xmlns="http://www.w3.org/2000/svg"><path d="m11.593 6.57-6.528 9.14a.5.5 0 0 0 .407.79h13.056a.5.5 0 0 0 .407-.79l-6.528-9.14a.5.5 0 0 0-.814 0Z" fill="#A4A4AD"/></svg><svg fill="none" viewBox="0 0 19 18" id="Download" xmlns="http://www.w3.org/2000/svg"><path d="M1.664 11.666c0 2.514 0 3.771.781 4.552C3.226 17 4.483 17 6.997 17h5.334c2.514 0 3.77 0 4.552-.78.781-.782.781-2.039.781-4.553M9.665 1v11.556m0 0 3.556-3.89m-3.556 3.89-3.556-3.89" stroke="#767676" stroke-width="2" stroke-linecap="round" stroke-linejoin="round"/></svg><svg fill="none" viewBox="0 0 16 18" id="share" xmlns="http://www.w3.org/2000/svg"><path d="M5.776 9a2.222 2.222 0 1 1-4.444 0 2.222 2.222 0 0 1 4.444 0Z" stroke="#767676" stroke-width="2"/><path d="M10.222 4.111 5.777 7.222M10.222 13.889l-4.445-3.112" stroke="#767676" stroke-width="2" stroke-linecap="round"/><path d="M14.667 14.777a2.222 2.222 0 1 1-4.444 0 2.222 2.222 0 0 1 4.444 0ZM14.667 3.222a2.222 2.222 0 1 1-4.444 0 2.222 2.222 0 0 1 4.444 0Z" stroke="#767676" stroke-width="2"/></svg></svg>